<svg width="24" height="26" viewBox="0 0 24 26" fill="none" xmlns="http://www.w3.org/2000/svg">
<path d="M12 0.59375C9.613 3.01075 9.598 6.93003 12 9.33203L15.668 13L13.4141 15.2539C15.1511 16.9919 15.9316 19.3506 15.7656 21.6406L20.0371 17.3691L23.7129 13.6934C24.0969 13.3104 24.0959 12.6896 23.7129 12.3066L16.3691 4.96289L12 0.59375ZM8.23438 4.35938L3.96289 8.63086L3.83985 8.75586L0.289066 12.3047C-0.0939342 12.6887 -0.0939342 13.3094 0.289066 13.6934L10.9668 24.3711L12 25.4062C14.387 22.9893 14.402 19.07 12 16.668L8.33203 13L10.5859 10.7461C8.84894 9.00809 8.06838 6.64937 8.23438 4.35938Z" fill="white"/>
</svg>
